<?xml version="1.0" standalone="no"?><!DOCTYPE svg PUBLIC "-//W3C//DTD SVG 1.1//EN" "http://www.w3.org/Graphics/SVG/1.1/DTD/svg11.dtd"><svg t="1484022473828" class="icon" style="" viewBox="0 0 1024 1024" version="1.1" xmlns="http://www.w3.org/2000/svg" p-id="2461" xmlns:xlink="http://www.w3.org/1999/xlink" width="200" height="200"><defs><style type="text/css"></style></defs><path d="M213.6 1008.576c0.288-0.064 0.448-0.064-0.352-0.064-0.768 0-0.64 0.064-0.32 0.064-0.16 0.064-0.032 0.064 0.32 0.064C213.632 1008.64 213.792 1008.64 213.6 1008.576zM1020 977.472C1022.368 981.888 1024 986.656 1024 992c0 17.664-14.624 32-32.64 32s-32.672-14.336-32.672-32l-0.8 0C913.024 790.72 730.56 640 512 640 293.408 640 110.88 790.72 66.08 992L65.248 992c0 17.664-14.656 32-32.64 32S0 1009.664 0 992c0-5.344 1.6-10.112 4-14.528 40.352-179.328 175.168-323.904 351.904-378.08C254.976 544.928 185.792 440.928 185.792 320 185.792 143.264 331.84 0 512 0c180.128 0 326.176 143.264 326.176 320 0 120.928-69.184 224.928-170.08 279.36C844.832 653.568 979.552 798.112 1020 977.472L1020 977.472zM772.928 320c0-141.376-116.832-256-260.928-256-144.16 0-260.96 114.624-260.96 256s116.832 255.968 260.96 255.968C656.096 575.968 772.928 461.376 772.928 320L772.928 320z" p-id="2462" fill="#999999"></path></svg>